<?xml version="1.0" standalone="no"?>
<!DOCTYPE svg PUBLIC "-//W3C//DTD SVG 20010904//EN"
 "http://www.w3.org/TR/2001/REC-SVG-20010904/DTD/svg10.dtd">
<svg version="1.0" xmlns="http://www.w3.org/2000/svg"
 width="176.000000pt" height="176.000000pt" viewBox="0 0 176.000000 176.000000"
 preserveAspectRatio="xMidYMid meet">
<metadata>
Created by potrace 1.14, written by Peter Selinger 2001-2017
</metadata>
<g transform="translate(0.000000,176.000000) scale(0.100000,-0.100000)"
fill="#000000" stroke="none">
<path d="M0 1241 l0 -519 288 83 c159 46 315 94 348 108 68 29 585 178 629
181 33 3 105 24 120 36 6 4 81 29 168 54 87 26 169 52 182 58 l25 11 0 254 0
253 -880 0 -880 0 0 -519z"/>
<path d="M1697 1100 c-42 -27 -54 -30 -96 -24 -40 5 -59 1 -110 -21 -33 -15
-61 -32 -61 -36 0 -9 32 1 80 26 16 8 55 15 89 15 50 0 69 5 111 31 27 17 50
33 50 35 0 9 -18 2 -63 -26z"/>
<path d="M1313 1033 c-45 -9 -29 -62 19 -63 9 0 20 -4 23 -10 10 -16 25 -12
19 5 -4 8 -20 19 -37 23 -17 4 -32 13 -35 20 -5 16 35 16 41 0 3 -7 6 -3 6 10
1 12 -2 21 -6 21 -5 -1 -18 -4 -30 -6z"/>
<path d="M1213 1003 c-20 -8 -15 -22 5 -16 15 4 21 -4 32 -41 8 -31 18 -46 29
-46 10 0 12 3 5 8 -6 4 -18 27 -26 51 -14 45 -23 53 -45 44z"/>
<path d="M1148 982 c-24 -5 -23 -22 0 -22 13 0 22 -12 31 -40 13 -43 38 -53
61 -25 8 9 9 15 2 15 -6 0 -14 -5 -17 -10 -8 -13 -35 6 -35 24 -2 28 -26 62
-42 58z"/>
<path d="M1715 983 c-16 -2 -37 -7 -45 -10 -8 -3 -24 -7 -35 -8 -37 -5 -140
-37 -152 -47 -7 -6 -13 -7 -13 -2 0 5 -4 4 -8 -1 -4 -6 -51 -24 -105 -40 -54
-15 -113 -36 -130 -45 -18 -10 -57 -25 -88 -34 -50 -14 -60 -14 -84 -2 -25 13
-30 13 -43 -1 -10 -9 -18 -11 -20 -5 -2 7 -14 7 -35 1 -41 -12 -43 -11 -29 3
7 7 12 19 12 27 -1 13 -2 13 -11 -1 -15 -27 -54 -22 -74 8 -16 25 -16 27 3 46
16 16 23 18 41 9 17 -10 21 -9 21 4 0 11 7 15 22 13 16 -2 25 -14 33 -42 12
-41 28 -56 40 -37 3 6 0 11 -8 11 -9 0 -19 18 -26 45 -8 33 -16 45 -29 45 -10
0 -22 -3 -26 -7 -4 -4 -19 -9 -34 -11 -15 -2 -36 -12 -47 -23 -20 -19 -20 -19
0 -56 12 -22 30 -40 45 -44 21 -6 22 -7 5 -9 -77 -9 -130 -8 -142 1 -16 14
-17 -3 -1 -19 15 -15 6 -24 -14 -17 -9 4 -23 26 -33 51 -13 35 -22 44 -40 44
-13 0 -26 -4 -30 -10 -3 -5 -11 -7 -18 -4 -7 2 -21 -3 -32 -12 -20 -15 -20
-15 3 -11 12 3 22 0 22 -5 0 -6 8 -4 18 5 31 29 51 21 72 -29 13 -29 24 -43
31 -38 8 4 9 3 5 -4 -5 -8 -13 -9 -25 -3 -10 6 -27 7 -39 4 -17 -4 -24 1 -32
22 -15 39 -25 23 -11 -16 6 -18 8 -35 5 -38 -4 -3 -9 0 -11 7 -3 6 -9 10 -14
6 -11 -6 -12 -24 -2 -23 20 3 33 -2 33 -12 0 -8 -4 -8 -12 -2 -7 5 -19 8 -25
7 -7 -1 -17 -2 -21 -3 -5 0 -19 -10 -32 -21 -13 -11 -29 -20 -37 -20 -7 0 -13
-4 -13 -9 0 -6 12 -6 32 0 18 5 40 9 48 8 25 -1 -133 -49 -165 -50 -27 -1
-177 -40 -347 -90 l-68 -20 0 -234 0 -235 880 0 880 0 0 495 c0 272 -3 494 -7
494 -5 -1 -21 -4 -38 -6z m-800 -233 c-8 -13 8 -13 22 1 7 7 13 8 17 0 5 -7
15 -7 31 -1 14 5 25 6 25 2 0 -8 -83 -33 -125 -38 -11 -1 -20 -3 -20 -4 0 -1
-16 -3 -35 -5 -19 -1 -36 -7 -38 -13 -1 -5 -13 -8 -25 -5 -18 4 -19 3 -7 -6
17 -12 10 -14 -14 -5 -9 3 -13 11 -9 17 4 6 1 7 -6 3 -7 -5 -10 -13 -8 -20 3
-7 -9 -11 -34 -11 -22 0 -41 6 -44 13 -3 8 3 10 19 6 14 -3 36 2 56 15 19 11
37 18 42 15 5 -3 15 0 23 6 8 6 19 9 25 5 5 -3 10 -2 10 3 0 6 7 13 16 16 10
4 13 2 8 -7 -5 -8 -2 -7 9 2 14 11 17 11 17 0 0 -10 5 -9 17 4 19 18 38 23 28
7z m-235 -50 c0 -5 -4 -10 -10 -10 -5 0 -10 5 -10 10 0 6 5 10 10 10 6 0 10
-4 10 -10z m-45 -61 c-16 -4 -33 -5 -37 -1 -4 4 10 8 30 9 37 1 37 1 7 -8z"/>
<path d="M925 970 c-3 -5 3 -10 15 -10 12 0 18 5 15 10 -3 6 -10 10 -15 10 -5
0 -12 -4 -15 -10z"/>
<path d="M1050 953 c-20 -7 -40 -33 -40 -51 0 -9 8 -4 21 12 26 33 53 33 84 0
14 -15 25 -22 25 -15 0 16 -46 61 -62 60 -7 0 -20 -3 -28 -6z"/>
<path d="M1300 937 c0 -21 24 -32 48 -21 14 6 13 8 -8 12 -14 2 -28 9 -32 16
-5 7 -8 5 -8 -7z"/>
<path d="M1031 884 c-1 -34 22 -58 51 -51 14 4 28 14 32 22 4 12 2 13 -13 3
-24 -14 -49 -4 -61 24 -8 22 -9 22 -9 2z"/>
<path d="M762 862 c-45 -7 -35 -62 11 -62 11 0 30 -8 41 -17 20 -18 20 -18 5
7 -9 13 -30 28 -48 32 -17 5 -29 13 -26 18 9 14 45 12 45 -2 0 -6 3 -9 6 -5
12 12 -12 32 -34 29z"/>
<path d="M1115 820 c-3 -5 -1 -10 4 -10 6 0 11 5 11 10 0 6 -2 10 -4 10 -3 0
-8 -4 -11 -10z"/>
<path d="M352 810 c-41 -10 -82 -47 -82 -74 0 -17 3 -16 20 11 10 17 28 36 39
42 26 14 71 10 71 -6 0 -7 4 -13 10 -13 12 0 -3 43 -16 46 -5 1 -24 -2 -42 -6z"/>
<path d="M955 810 c-3 -5 -1 -10 4 -10 6 0 11 5 11 10 0 6 -2 10 -4 10 -3 0
-8 -4 -11 -10z"/>
<path d="M1080 810 c-8 -5 -12 -11 -9 -14 2 -3 11 -1 19 4 8 5 12 11 9 14 -2
3 -11 1 -19 -4z"/>
<path d="M482 774 c-12 -8 -22 -23 -22 -32 0 -13 3 -12 16 6 24 35 82 25 97
-18 4 -10 6 -8 6 7 1 23 -32 53 -59 53 -9 0 -26 -7 -38 -16z"/>
<path d="M164 722 c-12 -4 -43 -31 -69 -59 -26 -29 -55 -53 -65 -53 -11 0 -22
-5 -26 -11 -5 -9 1 -10 22 -5 17 4 50 29 79 61 28 31 59 56 70 56 11 0 29 4
40 9 18 8 18 9 -5 8 -14 0 -35 -3 -46 -6z"/>
<path d="M296 695 c11 -57 59 -88 109 -69 19 8 50 64 35 64 -5 0 -10 -7 -10
-15 0 -18 -31 -35 -63 -35 -26 0 -50 21 -67 60 -10 24 -10 24 -4 -5z"/>
<path d="M480 708 c0 -8 6 -22 13 -33 16 -21 67 -14 67 10 0 13 -3 13 -21 3
-18 -11 -23 -10 -40 11 -12 15 -19 18 -19 9z"/>
</g>
</svg>
